<svg width="38" height="38" viewBox="0 0 38 38" fill="none" xmlns="http://www.w3.org/2000/svg">
  <path fill-rule="evenodd" clip-rule="evenodd" d="M24.4228 14.4099C24.4228 14.8351 24.0793 15.1801 23.6526 15.1801V15.1786C23.2274 15.1786 22.8824 14.8335 22.8824 14.4084V8.24662C22.8824 7.82145 22.5373 7.4764 22.1121 7.4764H10.4602L16.3786 10.0135C17.4338 10.4649 18.261 11.7188 18.261 12.8679V27.5021H22.1121C22.5373 27.5021 22.8824 27.1571 22.8824 26.7319V20.5702C22.8824 20.145 23.2274 19.7999 23.6526 19.7999C24.0793 19.7999 24.4228 20.145 24.4228 20.5702V26.7319C24.4228 28.0059 23.3861 29.0426 22.1121 29.0426H18.261V31.3532C18.261 32.0202 17.9822 32.5871 17.4985 32.906C17.232 33.0816 16.9193 33.1709 16.5912 33.1709C16.3247 33.1709 16.0459 33.1124 15.7717 32.9969L7.81992 29.5879C6.76471 29.1365 5.9375 27.8826 5.9375 26.7334V8.24816C5.9375 6.97423 6.97422 5.9375 8.24816 5.9375H22.1121C23.3861 5.9375 24.4228 6.97423 24.4228 8.24816V14.4099ZM16.7206 12.8695C16.7206 12.3303 16.2677 11.6433 15.7717 11.4307L7.55651 7.90926C7.50567 8.01247 7.47794 8.12646 7.47794 8.24816V26.7334C7.47794 27.2741 7.93083 27.9596 8.42685 28.1722L16.3786 31.5812C16.5265 31.6428 16.6251 31.6382 16.6513 31.6213C16.6775 31.6043 16.7206 31.515 16.7206 31.3548V12.8695Z" fill="#626469"/>
  <path fill-rule="evenodd" clip-rule="evenodd" d="M34.2103 16.9457L29.589 12.3243C29.2901 12.024 28.8003 12.024 28.5014 12.3243C28.201 12.6247 28.201 13.1131 28.5014 13.4134L31.8057 16.7192H22.1117C21.688 16.7192 21.3414 17.0643 21.3414 17.4894C21.3414 17.9146 21.688 18.2597 22.1117 18.2597H31.8057L28.5014 21.5655C28.201 21.8658 28.201 22.3542 28.5014 22.6545C28.6524 22.8055 28.8496 22.8794 29.0452 22.8794C29.2424 22.8794 29.4395 22.804 29.592 22.6545L34.2134 18.0332C34.5122 17.7328 34.5122 17.2445 34.2134 16.9441L34.2103 16.9457Z" fill="#626469"/>
</svg>
