<svg width="32" height="32" viewBox="0 0 32 32" fill="none" xmlns="http://www.w3.org/2000/svg">
  <path d="M25.7141 10.4C26.4141 9.1 25.8141 7.5 24.5141 6.8C23.7141 6.4 23.2141 5.7 23.0141 4.9C22.8141 3.6 21.6141 2.6 20.2141 2.6C20.1141 2.6 19.9141 2.6 19.8141 2.6C19.7141 2.6 19.5141 2.6 19.4141 2.6C18.7141 2.6 18.0141 2.3 17.4141 1.8C16.9141 1.3 16.1141 1 15.4141 1C14.7141 1 14.0141 1.3 13.4141 1.8C13.0141 2.4 12.3141 2.6 11.5141 2.6C11.4141 2.6 11.2141 2.6 11.1141 2.6C11.0141 2.6 10.8141 2.6 10.7141 2.6C9.41413 2.6 8.21413 3.5 8.01413 4.8C7.81413 5.7 7.31413 6.4 6.51413 6.8C5.11413 7.5 4.61413 9.1 5.31413 10.4C5.71413 11.2 5.71413 12 5.31413 12.8C4.61413 14.1 5.21413 15.7 6.51413 16.4C7.31413 16.8 7.81413 17.5 8.01413 18.3C8.11413 18.7 8.21413 19 8.41413 19.3L6.01413 28.3L12.5141 30.1L14.7141 21.9C15.0141 22 15.2141 22 15.5141 22C15.8141 22 16.1141 21.9 16.3141 21.9L18.5141 30.1L25.0141 28.3L22.6141 19.3C22.8141 19 22.9141 18.7 23.0141 18.3C23.2141 17.5 23.7141 16.8 24.5141 16.4C25.9141 15.7 26.4141 14.1 25.7141 12.8C25.3141 12 25.3141 11.1 25.7141 10.4ZM11.1141 27.7L8.41413 27L10.1141 20.6C10.3141 20.6 10.5141 20.7 10.7141 20.7C10.8141 20.7 11.0141 20.7 11.1141 20.7C11.2141 20.7 11.4141 20.7 11.5141 20.7C12.0141 20.7 12.4141 20.8 12.8141 21L11.1141 27.7ZM19.9141 27.7L18.1141 20.9C18.5141 20.7 19.0141 20.6 19.4141 20.6C19.5141 20.6 19.7141 20.6 19.8141 20.6C19.9141 20.6 20.1141 20.6 20.2141 20.6C20.4141 20.6 20.6141 20.6 20.8141 20.5L22.5141 26.9L19.9141 27.7ZM23.9141 13.7C24.1141 14 23.9141 14.4 23.6141 14.6C22.3141 15.3 21.3141 16.5 21.1141 18C21.0141 18.4 20.7141 18.6 20.3141 18.6H20.2141C20.0141 18.6 19.8141 18.6 19.5141 18.6C18.3141 18.6 17.1141 19.1 16.2141 19.9C15.9141 20.1 15.6141 20.1 15.5141 20.1C15.4141 20.1 15.1141 20.1 14.9141 19.9C14.0141 19.1 12.8141 18.6 11.6141 18.6C11.4141 18.6 11.2141 18.6 10.9141 18.6H10.8141C10.4141 18.6 10.0141 18.3 10.0141 18C9.71413 16.6 8.81413 15.3 7.51413 14.6C7.11413 14.4 7.01413 14 7.21413 13.7C7.91413 12.4 7.91413 10.8 7.21413 9.5C6.91413 9.1 7.01413 8.7 7.41413 8.6C8.71413 7.9 9.71413 6.7 9.91413 5.2C10.0141 4.8 10.3141 4.6 10.8141 4.6H10.9141C11.1141 4.6 11.3141 4.6 11.6141 4.6C12.8141 4.6 14.0141 4.1 14.9141 3.3C15.1141 3.1 15.4141 3.1 15.5141 3.1C15.6141 3.1 15.9141 3.1 16.1141 3.3C17.0141 4.1 18.2141 4.6 19.4141 4.6C19.6141 4.6 19.8141 4.6 20.1141 4.6H20.2141C20.6141 4.6 21.0141 4.9 21.0141 5.2C21.3141 6.6 22.2141 7.9 23.5141 8.6C23.9141 8.8 24.0141 9.2 23.8141 9.5C23.3141 10.8 23.3141 12.4 23.9141 13.7Z" fill="#626469"/>
  <path d="M15.5142 9.09998C14.1142 9.09998 13.0142 10.2 13.0142 11.6C13.0142 13 14.1142 14.1 15.5142 14.1C16.9142 14.1 18.0142 13 18.0142 11.6C18.0142 10.2 16.9142 9.09998 15.5142 9.09998Z" fill="#626469"/>
</svg>
